/* XPM */
static char *_697735864567[] = {
/* columns rows colors chars-per-pixel */
"64 64 16 1 ",
"  c #0B0A12",
". c #18131D",
"X c #251618",
"o c #211926",
"O c #3A2024",
"+ c #342731",
"@ c #542924",
"# c #48373E",
"$ c #6B352C",
"% c #724037",
"& c #604B55",
"* c #7F6772",
"= c #B36552",
"- c #C27359",
"; c #A28492",
": c None",
/* pixels */
"::oooooooooo   oooooooooooooooo:::oooooooooooooooo   oooooooooo:",
"::oooooooooo   oooooooooooooooo:::oooooooooooooooo   oooooooooo:",
"oo######&&&&&&&&&&&&&########++:::++######&&&&&&&&&&&&&&&&#####o",
"oo######&&&&&&&&&&&&&########++:::++######&&&&&&&&&&&&&&&&#####o",
"oo&&;;;;;;;;;;;;;;;;;;;;;;;;*++:::++*;;;;;;;;;;;;;;;;;;;;;;;;&&o",
"oo&&;;;;**;;;;;;;;;;;;;;;;;;*++...++*;;;;;;;;;;;;;;;;;;*;;;;;&&o",
"oo&&;;;;**;;;;;;;;;;;;;;;;;;*++...++*;;;;;;;;;;;;;;;;;;*;;;;;&&o",
"oo**&&&&&&&&&&&&&&&&&&&&&&**&++...++#**&&&&&&&&&&&&&&&&&&&&&&**o",
"oo##**********************##*##...##*##*********##***********##o",
"oo##**********************##*##...##*##*********##***********##o",
"oo##&&&&&&&&&&&&&&&&&&&&&&##*##...##*##&&&&&&&&&&&&&&&&&&&&&&##o",
"oo##&##*****#&&&&&##****##++*##+++++*++#*****##&&&&&#*****##&##o",
"oo##&##*****#&&&&&##****##++*##+++++*++#*****##&&&&&#*****##&##o",
"oo##&##&****#&&&&&##*&&*####******++&++#**&&*##&&&&&#***&&##&##o",
"ooXXO++&&&&&+OOOXX++&&&&++++***###++&+++&&&&&++XOOOO+&&&&&++OXXo",
"ooXXO++&&&&&+OOOXX++&&&&++++***###++&+++&&&&&++XOOOO+&&&&&++OXXo",
"ooXX@@@+++++@@@@XX@@++++XX++&&&#++..&++X+++++$$O$$$$$+++++$$$XXo",
"ooXX@@@@XX$$$$$$@@$$$$$$XX++*&&&++..&++X$$$$$$$O$$$$%$$X$$$$%XXo",
"ooXX@@@@XX$$$$$$@@$$$$$$XX++*&&&++..&++X$$$$$$$O$$$$%$$X$$$$%XXo",
"ooXX@$$$XX$$%%%$@@%%$%%$OO++&&&&++..&++O$$%%%$$@%%%%$$$@$$%%%OOo",
"XXXX@$$%OO$$%$$$@@%%%%%$OO##&&&&++..&++O%%%%%%%@%%%%$$$@%%%%%OOo",
"XXXX@$$%OO$$%$$$@@%%%%%$OO##&&&&++..&++O%%%%%%%@%%%%$$$@%%%%%OOo",
"ooXX@$$%@@$$%$$$@@%%%%%$OO++&&&#++..&++O%%%%%%%@%%%%$%%@%%%%%OOo",
"ooOO$%%%@@$$%%%$@@%%%%%$@@++&&&#++..&++O%%%%%%%@%%%%%%%@%%$$$OOo",
"ooOO$%%%@@$$%%%$@@%%%%%$@@++&&&#++..&++O%%%%%%%@%%%%%%%@%%$$$OOo",
"ooOO$%%%@@$$%%%$OO$$%$$$@@++&++.....&++O%%%%%$$@%%%%%%%@%%$$$OOo",
"ooOO$%%%OO$$%$$$OO$$$---$$++&++*****&++O$$%%%$$@$$%%%$$@%%%%$OOo",
"ooOO$%%%OO$$%$$$OO$$$---$$++&++*****&++O$$%%%$$@$$%%%$$@%%%%$OOo",
"ooOO$%%$OO$$%$$$==---%%$%%oo&++***&&&##@$$$$$$$O$$%%%$$@%%%%$OOo",
"ooOO$%%$OO$$=---%%%%%$$O%%oo&++#&&&&&##@@@--=@@O$$$$%$$O$$%%$OOo",
"ooOO$%%$OO$$=---%%%%%$$O%%oo&++#&&&&&##@@@--=@@O$$$$%$$O$$%%$OOo",
"ooOO$$$=====%%%%%%%%%%%%%%oo&++#&&&&&##O%%%%%==-==$$$$$O$$%%$OOo",
"ooOO$==%$$%%%%%%%%%%%$$$@@oo&++#&&&&&++O%%$$$%%%%%==---O$$%%$OOo",
"ooOO$==%$$%%%%%%%%%%%$$$@@oo&++#&&&&&++O%%$$$%%%%%==---O$$%%$OOo",
"..XXO@@%OO$$%%%%$$$$$@@@OOoo&..+&&&&&++O%%OO$%%%$$%%%%%=====$OOo",
"..XXO@@%OO$$%%%%$$$$$@@@OOoo&..+&&&&&++O%%OO$%%%$$%%%%%=====$OOo",
"..XXO@@%$$$$$$$$@@@@@OOOoo++&..+&&&&&##O$$$$%%%%%%%%%%%%%%$$=OOo",
"ooXXO@@$$$$$@@@@OOOOO@@@@@++&..+&&&&&++@OO@@$$$$%%%%%%%$$$$$@OOo",
"ooXXO@@$$$$$@@@@OOOOO@@@@@++&..+&&&&&++@OO@@$$$$%%%%%%%$$$$$@OOo",
"ooXXOOO@@@@@OOOO@@@@@%%$@@++&..+&&&&&++@ooOOO@@@$$$$$$$%OO$$@OOo",
"ooXX@OOOOOOO@@@$@@$$%%%$@@##&...++++&++@@@@@@OOOOO@@@$$$$$$$@OOo",
"ooXX@OOOOOOO@@@$@@$$%%%$@@##&...++++&++@@@@@@OOOOO@@@$$$$$$$@OOo",
"XXXX@@@@@@$$%%%$@@$$%%%$OO##&*****++&++@$$%%%$$@@@OOOOO@@@@@OOOo",
"XXOO$@@%@@$$%%%$@@$$%%%$OO##&&&***++&++O$$%%%%%@$$@@@@@OOOOOOOOo",
"XXOO$@@%@@$$%%%$@@$$%%%$OO##&&&***++&++O$$%%%%%@$$@@@@@OOOOOOOOo",
"XXXX$$$%OO%%%%%$OO$$$$$$XX++&&&&&&++&ooX$$$$$%%O$$%%%%%@$$@@@XXo",
"..XX$$$%XX$$$$$$XX@@@@@@XX..&&&&&&++#ooX@@@@@$$O$$$$$$$O$$$$$XX.",
"..XX$$$%XX$$$$$$XX@@@@@@XX..&&&&&&++#ooX@@@@@$$O$$$$$$$O$$$$$XX.",
"..XXO@@@XX@@@@@@#######+++..&&&###++#oo+++++#@@O@@@@@@@O@@@@@XX.",
"..##++++++######**********..&&&&##++#oo******#######+++++++++++.",
"..##++++++######**********..&&&&##++#oo******#######+++++++++++.",
"..##************&&&&&&&&&&..&**&##..&oo&&&&&&****************++.",
"..++&&&###&&&&&&&&&&&&&&&&..&&&#++..&..&&&###&&&&&&&&&&&#####++.",
"..++&&&###&&&&&&&&&&&&&&&&..&&&#++..&..&&&###&&&&&&&&&&&#####++.",
"..++########&&&&&&&&&&&&&&oo&.......&..######&&&#####&&&#####++.",
"..oo########&&&&&&&&###&&&oo&..   ##&..######################++.",
"..oo########&&&&&&&&###&&&oo&..   ##&..######################++.",
"..oo###+##################oo&..   ++&..###########+++########++.",
"..oo+++#############+++###..&++   ++&..###++++++++++++++##+++++.",
"..oo+++#############+++###..&++   ++&..###++++++++++++++##+++++.",
"..ooo+++##++######++++++oo..&oo   ++&..++++++++++++++++++++++++.",
"::oo++++++ooooo+++++++++++..+oo   +++..++++++++++++++++++++++++:",
"::oo++++++ooooo+++++++++++..+oo   +++..++++++++++++++++++++++++:",
"::ooooooooooooooooooooooooooooo:::.............................:"
};
