/* XPM */
static char *_697735857088[] = {
/* columns rows colors chars-per-pixel */
"64 64 11 1 ",
"  c #101010",
". c #181818",
"X c gray13",
"o c gray16",
"O c #313131",
"+ c #F67C2F",
"@ c #BE6944",
"# c #FEAA48",
"$ c #FEBE54",
"% c #FFE27A",
"& c #FFF3C3",
/* pixels */
"XXXXXXXXXXXXXXXXXXX........           ................  XXXXXXXX",
"XXXXXXXXXXXXXXXXXXX........           ................  XXXXXXXX",
"XXXXXXXXXXXXXXXXXXX........           ................  XXXXXXXX",
"XXXXXXXXXXXXXXXXXXX.....        ...XXXooooooooooXXX.....XXXXXXXX",
"XXXXXXXXXXXXXXXXXXX.....        ...XXXooooooooooXXX.....XXXXXXXX",
"XXXXXXXXXXXXXXXXXXX.....        ...XXXooooooooooXXX.....XXXXXXXX",
"XXXXXXXXXXXXXXXXXXX...ooOOOOOOOOooooooXXXXXXXXXXXXX.....XXXXXXXX",
"XXXXXXXXXXXXXXXXXXX...ooOOOOOOOOooooooXXXXXXXXXXXXX.....XXXXXXXX",
"XXXXXXXXXXX...XX......OOoooXXXXXXXXXXXXXXXXXXXXXXXX.....XXXXXXXX",
"XXXXXXXXXXX...XX......OOoooXXXXXXXXXXXXXXXXXXXXXXXX.....XXXXXXXX",
"XXXXXXXXXXX...XX......OOoooXXXXXXXXXXXXXXXXXXXXXXXX.....XXXXXXXX",
"XXXXXXXXXXX.....XXX...ooXXXXXXXXXXXXXXXXXXXXXXXXXXX...  XXXXXXXX",
"XXXXXXXXXXX.....XXX...ooXXXXXXXXXXXXXXXXXXXXXXXXXXX...  XXXXXXXX",
"XXXXXXXXXXX.....XXX...ooXXXXXXXXXXXXXXXXXXXXXXXXXXX...  XXXXXXXX",
"...XXXXX...XXX........ooXXXXXXXXXXXXXXXXXXXXXXXXXXX     ........",
"...XXXXX...XXX........ooXXXXXXXXXXXXXXXXXXXXXXXXXXX     ........",
"...................   XXXXXXXXXXXXXXXXXXXXXXXXXXXXX...        ..",
"..........@........   XXXXXXXXXXXXXXXXXXXXXXXXXXXXX...        ..",
"...................   XXXXXXXXXXXXXXXXXXXXXXXXXXXXX...        ..",
"        ........      XXXXXXXX..XXXXXXXXXXXXXXXXXXX...          ",
"        ........      XXXXXXXX..XXXXXXXXXXXXXXXXXXX...          ",
"        ........      XXXXXXXX..XXXXXXXXXXXXXXXXXXX...          ",
"...   .....        ...XX......XXXXXXXXXXX@@XXXXX........   .....",
"...   .....        ...XX......XXXXXXXXXX@@@@@@XX........   .....",
"XXX...oooooooo@X...........XXXXXXXXXXX@@@@@@@@@X...     ......XX",
"XXX...ooooooooXX...........XXXXXXXXXXX@++++++@@X...     ......XX",
"XXX...ooooooooX@@..........XXXXXXXXX@+++###+++@X...     ......XX",
"XXXXXX..oooXXXXX@XXXXX..XXXXXXXXXXXX++XXX###++@.o@ooooXX...XXXXX",
"XXXXXX..oooXXXXXXXXXXX..X@@@@XXXXXXX+XXXXX##++@.o@ooooXX...XXXXX",
"XXXXXX..oooXXXXXXX@XXX..@++XXXXXXXXXXXXXXXXX#+@.o@ooooXX...XXXXX",
"XXXXXX@.ooooooXXXX@@XX@++++XXXXXXXXXXXXXXXX.#+@oXXXXXXXX...XXXXX",
"XXXXXX@@o@ooooXXXXX@@X@@+XXXX@@@@XXXXXXXXXX.++@oXXXXXXXX...XXXXX",
"XXXXXXXX@+@@@XooXXXX@@@+.@@@@@@+++@@XXXX...++@XXXXXXXX.....XXXXX",
"XXXXXXXXo@+++@ooXXXXX@++@@@@+++++#++@@XX..#++oXXXXXXXX.....XXXXX",
"XXXXXXXXooo@#++@@XX#++++##.XXXXXX%%#++++#@@@o+++@XXXXX.....XXXXX",
"XXXXXXXXXXXo+++#@@@++###+++++++#X+XXXX..##@@+.#++@X.....   XXXXX",
"XXXXXXXXXXXoo@++#+++###$+..++X++#++++X.. ##@+.X++@@.....   @@XXX",
"XXXXXXXXXXXo@o@++@+##$%$...++XX#X#X#++++  #+@.##++@...@@@@@@XXXX",
"...XXXXXXXXX@X..@++#$%%# ++###XX.#.... ++##++@#+++@+@@@@@@ .....",
"...XXXXXXX@@++@.@+#$%%%+++##%&#$$..++. # ##+@@#++++++@@@   .....",
"..........@++ @@++$$%&.+++#%&&.%%$$+++& %$$+@+@+++++@ @       ..",
"..........@++ @@+#$$%&.++#%%&&#&&&&&#++%%$$+++..@+@+  @       ..",
"..........++  @++$$   ++##%&&%%&&&&&$#+%%$$++ ...++@ @        ..",
"......    +@.@@@+$ $..++#$%&&&&&&&&&%%++%$$++o$#X++@XX..        ",
"......    @@.@@@+$ $%+++#$%&&&&&&&&&&%++%$$@+o$$X#+@XX..        ",
"......  @++#+@ @++%%%.++#$%&&&&&&&&&&%+o%$$++o$#X##@XX..        ",
"oooo@@@@@++++.@@++%%$&++#$$%&&&&&&&&&&+$%$+++X$##++@XX  ...XXXoo",
"ooooooX@@@@++#@@++%..&++##$%%&&%#&&&&&+#%++@@X###++@@@@@@..XXXoo",
"XXXXXXooo@@@+#@@@+@%  &+@#$$%%&%%&&&&&#$++#@XX#$#+@XXX  ...oooXX",
"XXXXXXooooo@+###@#+$$$$#++###$$$&&&#&#$$+@@@X#$$+@@XXX  ...oooXX",
"XXXXXXooooo@@+@#X+++#%%%%oo####&&X%&&X++@@%%%$$#+@@XXX  ...oooXX",
"XXXXXXXXXXXX@+++##+++##$%%&XX##X%%#++++@&&%%$$$++@XXXX.....oooXX",
"XXXXXXXXXXXXX@+@+##@@++++$&&%#%&&%#++##&&%%%$$++@@XXXX.....oooXX",
"XXXXXXXXXXXXXX@@@+++@@++++%&&$&%&&&+%%%&#%$$$+#@@XXXXX.....oooXX",
"XXXXXXXXXXXXXXXX@@@##@+++++%%$&$##%@@##+++@++@@@...........oooXX",
"XXXXXXXXXXXXXXXXXXX@@@@#  @++%+++@+@#@@XX+++@XXX...........oooXX",
"XXXXXXXXXXXXXXXXXXXXXX.....ooo..X+XXXXXXX@@XXX..XXX........XXXXX",
"XXXXXXXXXXXXXXXXXXXXXX.....ooo..XXXXXXXXXXXXXX..XXX........XXXXX",
"XXXXXXXXXXXXXXXXXXXXXX.....ooo..XXXXXXXXXXXXXX..XXX........XXXXX",
"XXXXXXXXXXXXXXXXXXXXXX..XXXXXXoo...XXXXX..............  ...XXXXX",
"XXXXXXXXXXXXXXXXXXXXXX..XXXXXXoo...XXXXX..............  ...XXXXX",
"XXXXXXXXXXXXXXXXXXXXXX..XXXXXXoo...XXXXX..............  ...XXXXX",
"XXXXXXXXXXXXXXXXXXX.....XXXXXXoo   ................     ...XXXXX",
"XXXXXXXXXXXXXXXXXXX.....XXXXXXoo   ................     ...XXXXX"
};
