/* XPM */
static char *_697732402149[] = {
/* columns rows colors chars-per-pixel */
"64 64 5 1 ",
"  c #101010",
". c #181818",
"X c gray13",
"o c gray16",
"O c #313131",
/* pixels */
"XXXXXXXXXXXXXXXXXXX........           ................  XXXXXXXX",
"XXXXXXXXXXXXXXXXXXX........           ................  XXXXXXXX",
"XXXXXXXXXXXXXXXXXXX........           ................  XXXXXXXX",
"XXXXXXXXXXXXXXXXXXX.....        ...XXXooooooooooXXX.....XXXXXXXX",
"XXXXXXXXXXXXXXXXXXX.....        ...XXXooooooooooXXX.....XXXXXXXX",
"XXXXXXXXXXXXXXXXXXX.....        ...XXXooooooooooXXX.....XXXXXXXX",
"XXXXXXXXXXXXXXXXXXX...ooOOOOOOOOooooooXXXXXXXXXXXXX.....XXXXXXXX",
"XXXXXXXXXXXXXXXXXXX...ooOOOOOOOOooooooXXXXXXXXXXXXX.....XXXXXXXX",
"XXXXXXXXXXX...XX......OOoooXXXXXXXXXXXXXXXXXXXXXXXX.....XXXXXXXX",
"XXXXXXXXXXX...XX......OOoooXXXXXXXXXXXXXXXXXXXXXXXX.....XXXXXXXX",
"XXXXXXXXXXX...XX......OOoooXXXXXXXXXXXXXXXXXXXXXXXX.....XXXXXXXX",
"XXXXXXXXXXX.....XXX...ooXXXXXXXXXXXXXXXXXXXXXXXXXXX...  XXXXXXXX",
"XXXXXXXXXXX.....XXX...ooXXXXXXXXXXXXXXXXXXXXXXXXXXX...  XXXXXXXX",
"XXXXXXXXXXX.....XXX...ooXXXXXXXXXXXXXXXXXXXXXXXXXXX...  XXXXXXXX",
"...XXXXX...XXX........ooXXXXXXXXXXXXXXXXXXXXXXXXXXX     ........",
"...XXXXX...XXX........ooXXXXXXXXXXXXXXXXXXXXXXXXXXX     ........",
"...................   XXXXXXXXXXXXXXXXXXXXXXXXXXXXX...        ..",
"...................   XXXXXXXXXXXXXXXXXXXXXXXXXXXXX...        ..",
"...................   XXXXXXXXXXXXXXXXXXXXXXXXXXXXX...        ..",
"        ........      XXXXXXXX..XXXXXXXXXXXXXXXXXXX...          ",
"        ........      XXXXXXXX..XXXXXXXXXXXXXXXXXXX...          ",
"        ........      XXXXXXXX..XXXXXXXXXXXXXXXXXXX...          ",
"...   .....        ...XX......XXXXXXXXXXXXXXXXXX........   .....",
"...   .....        ...XX......XXXXXXXXXXXXXXXXXX........   .....",
"XXX...ooooooooXX...........XXXXXXXXXXXXXXXXXXXXX...     ......XX",
"XXX...ooooooooXX...........XXXXXXXXXXXXXXXXXXXXX...     ......XX",
"XXX...ooooooooXX...........XXXXXXXXXXXXXXXXXXXXX...     ......XX",
"XXXXXX..oooXXXXXXXXXXX..XXXXXXXXXXXXXXXXXXXXXX..ooooooXX...XXXXX",
"XXXXXX..oooXXXXXXXXXXX..XXXXXXXXXXXXXXXXXXXXXX..ooooooXX...XXXXX",
"XXXXXX..oooXXXXXXXXXXX..XXXXXXXXXXXXXXXXXXXXXX..ooooooXX...XXXXX",
"XXXXXX..ooooooXXXXXXXX..XXXXXXXXXXXXXXXXXXX...ooXXXXXXXX...XXXXX",
"XXXXXX..ooooooXXXXXXXX..XXXXXXXXXXXXXXXXXXX...ooXXXXXXXX...XXXXX",
"XXXXXXXXoooXXXooXXXXXX.....XXXXXXXXXXXXX...oooXXXXXXXX.....XXXXX",
"XXXXXXXXoooXXXooXXXXXX.....XXXXXXXXXXXXX...oooXXXXXXXX.....XXXXX",
"XXXXXXXXoooXXXooXXXXXX.....XXXXXXXXXXXXX...oooXXXXXXXX.....XXXXX",
"XXXXXXXXXXXoooXXXXXXXX  ...XXXXXXXXXXX..   ...XXXXX.....   XXXXX",
"XXXXXXXXXXXoooXXXXXXXX  ...XXXXXXXXXXX..   ...XXXXX.....   XXXXX",
"XXXXXXXXXXXoooXXXXXXXX  ...XXXXXXXXXXX..   ...XXXXX.....   XXXXX",
"...XXXXXXXXXXX........     XXXXX......     ...........     .....",
"...XXXXXXXXXXX........     XXXXX......     ...........     .....",
"...........           .............           .....           ..",
"...........           .............           .....           ..",
"...........           .............           .....           ..",
"......     ...     .....oooOOOOOOOOoooooooooooXXXXXXXX..        ",
"......     ...     .....oooOOOOOOOOoooooooooooXXXXXXXX..        ",
"......     ...     .....oooOOOOOOOOoooooooooooXXXXXXXX..        ",
"ooooooXX..............  OOOoooXXXXXXXXXXXXXXXXXXXXXXXX  ...XXXoo",
"ooooooXX..............  OOOoooXXXXXXXXXXXXXXXXXXXXXXXX  ...XXXoo",
"XXXXXXooooooooooXXX     oooXXXXXXXXXXXXXXXXXXXXXXXXXXX  ...oooXX",
"XXXXXXooooooooooXXX     oooXXXXXXXXXXXXXXXXXXXXXXXXXXX  ...oooXX",
"XXXXXXooooooooooXXX     oooXXXXXXXXXXXXXXXXXXXXXXXXXXX  ...oooXX",
"XXXXXXXXXXXXXXXXXXX...  ...XXXXXXXXXXXXXXXXXXXXXXXXXXX.....oooXX",
"XXXXXXXXXXXXXXXXXXX...  ...XXXXXXXXXXXXXXXXXXXXXXXXXXX.....oooXX",
"XXXXXXXXXXXXXXXXXXX...  ...XXXXXXXXXXXXXXXXXXXXXXXXXXX.....oooXX",
"XXXXXXXXXXXXXXXXXXXXXX..   ...XXXXXXXXXXXXXXXXXX...........oooXX",
"XXXXXXXXXXXXXXXXXXXXXX..   ...XXXXXXXXXXXXXXXXXX...........oooXX",
"XXXXXXXXXXXXXXXXXXXXXX.....ooo..XXXXXXXXXXXXXX..XXX........XXXXX",
"XXXXXXXXXXXXXXXXXXXXXX.....ooo..XXXXXXXXXXXXXX..XXX........XXXXX",
"XXXXXXXXXXXXXXXXXXXXXX.....ooo..XXXXXXXXXXXXXX..XXX........XXXXX",
"XXXXXXXXXXXXXXXXXXXXXX..XXXXXXoo...XXXXX..............  ...XXXXX",
"XXXXXXXXXXXXXXXXXXXXXX..XXXXXXoo...XXXXX..............  ...XXXXX",
"XXXXXXXXXXXXXXXXXXXXXX..XXXXXXoo...XXXXX..............  ...XXXXX",
"XXXXXXXXXXXXXXXXXXX.....XXXXXXoo   ................     ...XXXXX",
"XXXXXXXXXXXXXXXXXXX.....XXXXXXoo   ................     ...XXXXX"
};
