/* XPM */
static char *_697735852500[] = {
/* columns rows colors chars-per-pixel */
"64 64 221 2 ",
"   c #101010",
".  c #181818",
"X  c #2B241F",
"o  c #2B251F",
"O  c #2C251F",
"+  c #2D251F",
"@  c #2C261F",
"#  c #2D261F",
"$  c #2E261F",
"%  c #2F1F26",
"&  c gray13",
"*  c #2B2520",
"=  c #2B2521",
"-  c #2B2620",
";  c #2C2420",
":  c #2D2420",
">  c #2C2520",
",  c #2D2520",
"<  c #2C2620",
"1  c #2D2620",
"2  c #2C2621",
"3  c #2F2027",
"4  c gray16",
"5  c #32272C",
"6  c #33272C",
"7  c #32272D",
"8  c #33272D",
"9  c #34272D",
"0  c #32282C",
"q  c #33282C",
"w  c #33292C",
"e  c #32282D",
"r  c #33282D",
"t  c #32282E",
"y  c #33282E",
"u  c #34282C",
"i  c #34282D",
"p  c #313131",
"a  c #5E1313",
"s  c #5E1412",
"d  c #5F1412",
"f  c #5E1413",
"g  c #5F1413",
"h  c #5E1513",
"j  c #5F1513",
"k  c #5F1314",
"l  c #5E1414",
"z  c #5F1414",
"x  c #5E1514",
"c  c #5F1514",
"v  c #601412",
"b  c #601512",
"n  c #601413",
"m  c #601414",
"M  c #473A32",
"N  c #473B32",
"B  c #473A33",
"V  c #493A31",
"C  c #483B31",
"Z  c #493B31",
"A  c #483A32",
"S  c #493A32",
"D  c #483B32",
"F  c #493B32",
"G  c #483A33",
"H  c #493A33",
"J  c #483B33",
"K  c #493B33",
"L  c #483C32",
"P  c #493C32",
"I  c #483C33",
"U  c #2E3664",
"Y  c #2F3664",
"T  c #2E3764",
"R  c #2E3665",
"E  c #2F3665",
"W  c #2F3765",
"Q  c #2E3865",
"!  c #303665",
"~  c #513D43",
"^  c #523D43",
"/  c #533D43",
"(  c #513E42",
")  c #513E43",
"_  c #513F43",
"`  c #523E42",
"'  c #533E42",
"]  c #523F42",
"[  c #533F42",
"{  c #523E43",
"}  c #533E43",
"|  c #523F43",
" . c #533F43",
".. c #523E44",
"X. c #523F44",
"o. c #8A2729",
"O. c #88262A",
"+. c #89262A",
"@. c #88272A",
"#. c #89272A",
"$. c #88262B",
"%. c #89262B",
"&. c #88272B",
"*. c #89272B",
"=. c #8A262A",
"-. c #8A272A",
";. c #8A262B",
":. c #8A272B",
">. c #89282A",
",. c #9F5B2F",
"<. c #9F5A30",
"1. c #9F5B30",
"2. c #9F5A31",
"3. c #9F5B31",
"4. c #9F5C30",
"5. c #A05A2F",
"6. c #A05B2F",
"7. c #A05930",
"8. c #A05A30",
"9. c #A05B30",
"0. c #A05A31",
"q. c #A15A31",
"w. c #A05B31",
"e. c #BD525D",
"r. c #BD535D",
"t. c #BE535D",
"y. c #BF535D",
"u. c #BD525E",
"i. c #BD535E",
"p. c #BE525E",
"a. c #BF525E",
"s. c #BE535E",
"d. c #BF535E",
"f. c #BB7941",
"g. c #BB7942",
"h. c #BB7843",
"j. c #BC7941",
"k. c #BD7941",
"l. c #BE7941",
"z. c #BC7842",
"x. c #BD7842",
"c. c #BC7942",
"v. c #BD7942",
"b. c #BC7843",
"n. c #BD7843",
"m. c #BC7943",
"M. c #BD7943",
"N. c #BC7A42",
"B. c #BD7A42",
"V. c #BD7A43",
"C. c #EEB761",
"Z. c #EDB961",
"A. c #EEB860",
"S. c #EFB860",
"D. c #EEB960",
"F. c #EFB960",
"G. c #EEB861",
"H. c #EFB861",
"J. c #EEB961",
"K. c #EFB961",
"L. c #EFBA60",
"P. c #EEBA61",
"I. c #EFBA61",
"U. c #EEB862",
"Y. c #F0BA61",
"T. c #4762A5",
"R. c #4762A6",
"E. c #4763A6",
"W. c #4961A5",
"Q. c #4862A5",
"!. c #4863A5",
"~. c #4861A6",
"^. c #4962A6",
"/. c #4863A6",
"(. c #BCB9B9",
"). c #BCBAB9",
"_. c #BDBAB9",
"`. c #BCBBB9",
"'. c #BDBBB9",
"]. c #BEBAB9",
"[. c #BDB9BB",
"{. c #BCBABA",
"}. c #BDBABA",
"|. c #BDBABB",
" X c #BDBBBB",
".X c #BEBABA",
"XX c #BEBBBA",
"oX c #F19F9F",
"OX c #F1A09E",
"+X c #F1A19E",
"@X c #F1A09F",
"#X c #F0A19F",
"$X c #F1A19F",
"%X c #F2A09E",
"&X c #F2A19E",
"*X c #F2A09F",
"=X c #F2A19F",
"-X c #F9E1D6",
";X c #F9E1D7",
":X c #FAE1D6",
">X c #FBE1D6",
",X c #FAE1D7",
"<X c #FBE1D7",
"1X c #F9E2D6",
"2X c #F9E3D6",
"3X c #F9E2D7",
"4X c #FAE2D6",
"5X c #FBE2D6",
"6X c #FAE2D7",
"7X c #FBE2D7",
"8X c #E3E1E3",
"9X c #E2E2E2",
"0X c #E3E2E2",
"qX c #E2E3E2",
"wX c #E3E3E2",
"eX c #E2E2E3",
"rX c #E3E2E3",
"tX c #E2E3E3",
"yX c gray89",
"uX c #E4E3E3",
"iX c #E3E3E4",
/* pixels */
"& & & & & & & & & & & & & & & & & & & . . . . . . . .                       . . . . . . . . J A . . . . . .     & & & & & & & & ",
"& & & & & & & & & & & & & & & & & & & . . . . . . . .                       . . . . . . F G P A . . . . . .     & & & & & & & & ",
"& & & & & & & & & & & & & & & & & & & . . . . . . . .                       . . . . . V N I S + . . . . . .     & & & & & & & & ",
"& & & & & & & & & & & & & & & & & & & . . . . .                 . . . & & & 4 4 4 4 4 N F I I 4 & & & . . . . . & & & & & & & & ",
"& & & & & & & & & & & & & & & & & & & . . . . .                 . . . & & & 4 4 4 4 4 G A A , 4 & & & . . . . . & & & & & & & & ",
"& & & & & & & & & & & & & & & & & & & . . . . .                 . . . & & & 4 4 4 4 4 A F G # 4 & & & . . . . . & & & & & & & & ",
"& & & & & & & & & & & & & & & & & & & . . . 4 4 p p p p p p p p 4 4 4 4 4 4 & & & & & + N I & & & & S V N . . . & & & & & & & & ",
"& & & & & & & & & & & & & & & & & & & . . . 4 4 p p p p p p p ` { 4 4 4 4 4 & & & & & & F I & N F I I N F I K . & & & & & & & & ",
"& & & & & & & & & & & . . . & & . . . . . . p p 4 4 4 & & ` / [ 8 ^ ( & & & & & & & & & A A G G A O & . + O S G & & & & & & & & ",
"& & & & & & & & & & & . . . & & . . . . . . p p 4 4 4 & ^ ) | & & q 8 & & & & & & & & & F G P ; & & & . . . + F & & & & & & & & ",
"& & & & & & & & & & & . . . & & . . . . . . p p 4 4 4 *.( ` { & & & 6 { & & & & & & & & N I , & & & & . . . . K A & & & & & & & ",
"& & & & & & & & & & & . . . . . & & & . . . 4 4 & & +.F.{ } +.F.& & & { & & & & & & & & 1 < & & & E./.T.. .   F D & & & & & & & ",
"& & & & & & & & & & & . . . . . & & & . . . 4 4 & & / [ ^ ` H.-.& & & K.G.& & & & & & & & & & & Q.9XrXR.Q..     G D & & & & & & ",
"& & & & & & & & & & & . . . . . & & & . . . 4 4 & ) | } ^ ) | } ^ & & & x.F.& & & & & & & & & ~.0XrX!.~.Q.~.    F O & & & & & & ",
". . . & & & & & . . . & & & . . . . . . . . 4 4 ( ` l c s ` {  .( & & & & & & & & & & & & & & W.R./.^.W.R./.    A 1 . . . . . . ",
". . . & & & & & . . . & & & . . . . . . . . 4 4 & n x.v.m.n d g { ) & & & & & & & & & & & & & T Q.E./.T.W Q     D + . . . . . . ",
". . . . . . . . . . . . . . . . . . .       / [ H.S.H.F.H.6 n.v.n g & & & & & & & & & & & & & & Y T.W R Y .   G G           . . ",
". . . . . . . . . . . . . . . . . . O , 2X4XS.J.q 6 + < @ S.6 e q q e & & & & & & & & & & & & & & E U ! . . G D @           . . ",
". . . . . . . . . . . . . . . . . A.A., &XOXr 5 r r F M K 1 K.G.{ ^ } ( { & & & & & & & & & & & & & & . K.A D <             . . ",
"                . . . . . . . M.v.S.Z.K.6 6 5 7 6 J O * S J O * S.A.} ' ^ ` } & & & & & & & & & & H.A.J P.+ O                   ",
"                . . . . . . . ) ` u.#.c.6 8 6 e , H OXD *XH A @X*X- K.K.{ _ X.{ { & & & & & & & C H.D.S C b.                    ",
"                . . . . . . . .   r.+.n e 5 6 e A S %X< @ %Xn *.#.OX< r H.F.J.K.H.] _ & & & A S F H.A.x.F n.                    ",
". . .       . . . . .           y.t.O.g . . & & K K , e.tX7Xg O.j *X1 @ r 8 r 0 r H.K.& S A D B S A J.h.6 . . .       . . . . . ",
". . .       . . . . .           t.=.x . . . & & S J A @.0X6X:Xf 5XOXK + & & r u 8 5 & & I S M J I 6 z.m.. . . .       . . . . . ",
"& & & . . . 4 4 4 4 4 4 4 4 & r.o.%.h . . . . . . H 4X,X7X6X4X,X7X#X& & & & & & & & & & & G D S q . .           . . . . . . & & ",
"& & & . . . 4 4 4 4 4 4 4 4 & d.>.d g . . . . . . S S 6X4X,X>X6X4XD & & & & & & & & & & & H A : . . .           . . . . . . & & ",
"& & & . . . 4 4 4 4 4 4 4 4 & & y.#.O.g b . . . . K.F X < =X%XX K S & & & & & & & & & & & & D = . . .           . . . . . . & & ",
"& & & & & & . . 4 4 4 & & & & & & =.&.:.g =.5 7 S.r O N v.3 % g.S & & & & & & & & & & & & & M > 4 4 4 4 4 4 & & . . . & & & & & ",
"& & & & & & . . 4 4 4 & & & & & & & #.@.o.%.G.e 8 K.g D z M.c.D H e & & & & & & & & & & & & D > 4 4 4 4 4 4 & & . . . & & & & & ",
"& & & & & & . . 4 4 4 & & & & & & & & & & d n J.F.=.=.J j =.x.c A F.e & & & & & & & & & & & A : 4 4 4 4 4 4 & & . . . & & & & & ",
"& & & & & & . . 4 4 4 4 4 4 & & & & & & & & g O.*.:.*.X j :.yXf < H.r & & & & & & & & . . . D = & & & & & & & & . . . & & & & & ",
"& & & & & & . . 4 4 4 4 4 4 & & & & & & & & x.@.n *.+.@.=.*._.@.t.f K.& & & & & & & & . . S M > & & & & & & & & . . . & & & & & ",
"& & & & & & & & 4 4 4 & & & 4 4 & & & & & & c.1.:.z +.*.:.:.+.i.z h c & & & & & . . . 4 4 G O & & & & & & & . . . . . & & & & & ",
"& & & & & & & & 4 4 4 & & & 4 4 & & & & & & v.2.#.g =.%.#.%.=.u.h x g & & & & & . . . 4 4 A $ & & & & & & & . . . . . & & & & & ",
"& & & & & & & & 4 4 4 & & & 4 4 & & & & & & c.q.$.%.s ;.$.%.+.a.a j g b & & & & . . . 4 4 D > & & & & & & & . . . . . & & & & & ",
"& & & & & & & & & & & 4 4 4 & & & & & & & & 0.2 @ #.%.c #.#.%.s.@ z h ;.*.& . .       . . o > & & & & . . . . .       & & & & & ",
"& & & & & & & & & & & 4 4 4 & & & & & & & M.8.e > #.:.*.z d n *.> n #.+.*.:.t..       . . tX[.& & & & . . . . .       & & & & & ",
"& & & & & & & & & & & 4 4 4 & & & & & & & 0.6 7 < ^ ' ^ #.%.v l < 3.g #.%.&.*.#.p.    . . rXwX& & & & . . . . .       & & & & & ",
". . . & & & & & & & & & & & . . . . . . m.2.5 9 u.p.5 9 ~ ..+.m b.. . b c #.*.-.*.N.v.. }.}.tX. . . . . . .           . . . . . ",
". . . & & & & & & & & & & & . . . . . v.<.5 8 s.r.#.%.*.q yXrXiX1.. . . . z #.;.m.M.e 8 wX9X. . . . . . . .           . . . . . ",
". . . . . . . . . . .               c.6.e r s.*.*.#.:.*.*.#..X|.*.. .       j g <.8.r q eXtX. . . . .                       . . ",
". . . . . . . . . . .             n.w.6 5 8 v l #.%.=.%.#.%.=.%.h x .           8.3.  e wX:X5X. . . .                       . . ",
". . . . . . . . . . .           m.2.y e t G.D.m C.U.s m a z s m a j g                   }.6X1X. . . .                       . . ",
". . . . . .           . . . V.v.<.5 r q 7 d k m.c.B.k c j j k c j z J.4 4 4 4 4 4 4 4 4 wX(.& & & & & & & & . .                 ",
". . . . . .           . 4.M.<.6.e r 5 q e =X*Xg z j.n J.G.d K.J.z H.c.z.4 4 4 4 4 4 4 4 eXtX& & & & & & & & . .                 ",
". . . . . .         1.7.c.8 r 6 5 8 r 6 5 ,X>X;X@Xg S.G.c.G.S.b.c.x g h 4 4 4 4 4 4 4 4 _.rX& & & & & & & & . .                 ",
"4 4 4 4 4 4 & & . 2.6.1.3.m.m.e t 8 y e t 6X-X<XoX@Xs m a z s m a j OX$ M.& & & & & &  X}.}.& & & & & & & &     . . . & & & 4 4 ",
"4 4 4 4 4 4 & & . . . . . 5.9.v.7 5 r q 7 :X,X6X4X=X: 2 @ 1 @X$X+X*X$X8.m.& & & & & & 8XwX& & & & & & & & &     . . . & & & 4 4 ",
"& & & & & & 4 4 4 4 4 4 4 4 4 6.e r 5 q e 6X7X6X6X5 r e 8 5 7X6X6X7X+X& & & & & & & & wXeX& & & & & & & & &     . . . 4 4 4 & & ",
"& & & & & & 4 4 4 4 4 4 4 4 4 8.m.q r 7 r qXqXwXrXq e q 8 q c.4X6X4X3X& & & & & & & & ].}.& & & & & & & & &     . . . 4 4 4 & & ",
"& & & & & & 4 4 4 4 4 4 4 4 4 4 8.k.v.v.z.wXyX0XXXe r 6 i c.9.6 i u 8 & & & & & & & & tXyX& & & & & & & & &     . . . 4 4 4 & & ",
"& & & & & & & & & & & & & & & & & ,.8.8.3.)._.`.yXM.v.f.B.0.& 0 q r w & & & & & & & & XX9X& & & & & & & & & . . . . . 4 4 4 & & ",
"& & & & & & & & & & & & & & & & & & & . . . eX}.}.}.2.8.9.& & & q 8 8 & & & & & & & & F , & & & & & & & & & . . . . . 4 4 4 & & ",
"& & & & & & & & & & & & & & & & & & & . . . qXwXrX'.. & & & & & 8 q 7 8 & & & & & & M Z O & & & & & & & & & . . . . . 4 4 4 & & ",
"& & & & & & & & & & & & & & & & & & & & & & yX0XuX{.  . . . & & & u 8 5 & & & & & & S D & & & & . . . . . . . . . . . 4 4 4 & & ",
"& & & & & & & & & & & & & & & & & & & & & & . `.XX|.  . . . & & & & w 6 q & & & & & L F & & & & . . . . . . . . . . . 4 4 4 & & ",
"& & & & & & & & & & & & & & & & & & & & & & . yXwX}.. 4 4 4 . . & & 8 r e & & & & & A 1 & & . . & & & . . . . . . . . & & & & & ",
"& & & & & & & & & & & & & & & & & & & & & & . wXrX'.. 4 4 4 . . & & 7 8 K.F.& & & & M # & & . . & & & . . . . . . . . & & & & & ",
"& & & & & & & & & & & & & & & & & & & & & & . 0XY.J.K.4 4 4 . . & & G.A.J.6.G.& & & S < & & . . & & & . . . . . . . . & & & & & ",
"& & & & & & & & & & & & & & & & & & & & & & S.D.I.0.8.& & & 4 4 . . L.9.B.9.& & . . L 1 . . . . . . . . . .     . . . & & & & & ",
"& & & & & & & & & & & & & & & & & & & & & & G.8.c.v.& & & & 4 4 . . . M.v.8.& & . . A 1 . . . . . . . . . .     . . . & & & & & ",
"& & & & & & & & & & & & & & & & & & & & & & . 9.M.N.& & & & 4 4 . . . 8.v.v.& & . D M # . . . . . . . . . .     . . . & & & & & ",
"& & & & & & & & & & & & & & & & & & & . . . . x.V.c.& & & & 4 4       <.c.l.. . . Z : . . . . . . . .           . . . & & & & & ",
"& & & & & & & & & & & & & & & & & & & . . . . . 9.M.v.f.& & 4 4     B.v.B.v.. . . D # . . . . . . . .           . . . & & & & & "
};
