/* XPM */
static char *_697732410069[] = {
/* columns rows colors chars-per-pixel */
"64 64 7 1 ",
"  c gray32",
". c #5A5A5A",
"X c gray39",
"o c gray42",
"O c #7B7B7B",
"+ c gray55",
"@ c gray58",
/* pixels */
"XXXXXXXX......XX......XX@@@@@@@@++++++oooooXXXXXXXXXXX..........",
"XXXXXXXX......XX......XX@@@@@@@@++++++oooooXXXXXXXXXXX..........",
"XXXXXXXX......XX......XX@@@@@@@@++++++oooooXXXXXXXXXXX..........",
"OOOOOOooXXX...  ...XXX@@+++OOOOOOOOOOOOOOOO+++++ooooooXXXXXXXXXX",
"OOOOOOooXXX...  ...XXX@@+++OOOOOOOOOOOOOOOO+++++ooooooXXXXXXXXXX",
"OOOOOOooXXX...  ...XXX@@+++OOOOOOOOOOOOOOOO+++++ooooooXXXXXXXXXX",
"OOOOOOOOoooXXX..   XXX@@OOOOOOOOOOOOOOOOOOOOOOOO+++XXXoo++++++OO",
"OOOOOOOOoooXXX..   XXX@@OOOOOOOOOOOOOOOOOOOOOOOO+++XXXoo++++++OO",
"OOOOOOOOOOOoooXX...ooo++OOOOOOOOOOOOOOOOOOOOOOOOoooooo++OOOOOOOO",
"OOOOOOOOOOOoooXX...ooo++OOOOOOOOOOOOOOOOOOOOOOOOoooooo++OOOOOOOO",
"OOOOOOOOOOOoooXX...ooo++OOOOOOOOOOOOOOOOOOOOOOOOoooooo++OOOOOOOO",
"OOOOOOOOOOOooo..XXX+++OOOOOOOOOOOOOOOOOOOOOOOOXXooo+++OOOOOOOOOO",
"OOOOOOOOOOOooo..XXX+++OOOOOOOOOOOOOOOOOOOOOOOOXXooo+++OOOOOOOOOO",
"OOOOOOOOOOOooo..XXX+++OOOOOOOOOOOOOOOOOOOOOOOOXXooo+++OOOOOOOOOO",
"OOOOOOOOoooXXX..XXX@@@OOOOOOOOOOOOOOOOOOOOO+++oo+++OOOOOOOOOOOOO",
"OOOOOOOOoooXXX..XXX@@@OOOOOOOOOOOOOOOOOOOOO+++oo+++OOOOOOOOOOOOO",
"OOOOOOOOooo...ooXXX+++OOOOOOOOOOOOOOOOOO+++XXX++OOOOOOOOOOOOOOOO",
"OOOOOOOOooo...ooXXX+++OOOOOOOOOOOOOOOOOO+++XXX++OOOOOOOOOOOOOOOO",
"OOOOOOOOooo...ooXXX+++OOOOOOOOOOOOOOOOOO+++XXX++OOOOOOOOOOOOOOOO",
"OOOOOOOOXXX...XX   OOOOOOOOOOOOOOOOOOO++ooo...++OOOOOOOOOOOOOOOO",
"OOOOOOOOXXX...XX   OOOOOOOOOOOOOOOOOOO++ooo...++OOOOOOOOOOOOOOOO",
"OOOOOOOOXXX...XX   OOOOOOOOOOOOOOOOOOO++ooo...++OOOOOOOOOOOOOOOO",
"OOOOOOoo   ...XX...XXXOOOOOOOOOO++++++++XXX   ooOOOOOOOOOOOOOOOO",
"OOOOOOoo   ...XX...XXXOOOOOOOOOO++++++++XXX   ooOOOOOOOOOOOOOOOO",
"OOOooo..      ..XXX...XXXXXXXXXXXXXXXX..   ...  XXXoooOOOOOOOOOO",
"OOOooo..      ..XXX...XXXXXXXXXXXXXXXX..   ...  XXXoooOOOOOOOOOO",
"OOOooo..      ..XXX...XXXXXXXXXXXXXXXX..   ...  XXXoooOOOOOOOOOO",
"...   XX...        XXX..      ..XXX...     XXX..      ..XXX...XX",
"...   XX...        XXX..      ..XXX...     XXX..      ..XXX...XX",
"...   XX...        XXX..      ..XXX...     XXX..      ..XXX...XX",
"XXXOOO@@@@@+++ooXXX   XXXXX...          ...XXXXX...XXXXX...   XX",
"XXXOOO@@@@@+++ooXXX   XXXXX...          ...XXXXX...XXXXX...   XX",
"XXX@@@++OOOOOOOOooo...XXXXXXXX  ...XXX..      ..   .....      ..",
"XXX@@@++OOOOOOOOooo...XXXXXXXX  ...XXX..      ..   .....      ..",
"XXX@@@++OOOOOOOOooo...XXXXXXXX  ...XXX..      ..   .....      ..",
"XXX+++OOOOOOOOOOoooXXXXX...   ..XXXXXXXXXXXOOO++++++++++OOOooo  ",
"XXX+++OOOOOOOOOOoooXXXXX...   ..XXXXXXXXXXXOOO++++++++++OOOooo  ",
"XXX+++OOOOOOOOOOoooXXXXX...   ..XXXXXXXXXXXOOO++++++++++OOOooo  ",
"ooo+++OOOOOOOOOOXXXoooOOoooXXX  XXXOOO++++++++OOOOOOOOOO+++OOOXX",
"ooo+++OOOOOOOOOOXXXoooOOoooXXX  XXXOOO++++++++OOOOOOOOOO+++OOOXX",
"+++OOOOOOOOOOOOOXXXOOO++OOOooo  OOO+++OOOOOOOOOOOOOOOOOOOOOOOOXX",
"+++OOOOOOOOOOOOOXXXOOO++OOOooo  OOO+++OOOOOOOOOOOOOOOOOOOOOOOOXX",
"+++OOOOOOOOOOOOOXXXOOO++OOOooo  OOO+++OOOOOOOOOOOOOOOOOOOOOOOOXX",
"OOOOOOOOOOOOOOOOooo+++OOOOOOOOXX+++OOOOOOOOOOOOOOOOOOOOOOOOOOO..",
"OOOOOOOOOOOOOOOOooo+++OOOOOOOOXX+++OOOOOOOOOOOOOOOOOOOOOOOOOOO..",
"OOOOOOOOOOOOOOOOooo+++OOOOOOOOXX+++OOOOOOOOOOOOOOOOOOOOOOOOOOO..",
"OOOOOOOOOOOOOOooOOO+++OOOOOOOO..+++OOOOOOOOOOOOOOOOOOOOOOOOOOO  ",
"OOOOOOOOOOOOOOooOOO+++OOOOOOOO..+++OOOOOOOOOOOOOOOOOOOOOOOOOOO  ",
"OOOOOOOOOOOOOOXX+++OOOOOOOOOOO  +++OOOOOOOOOOOOOOOOOOOOOOOOOOO..",
"OOOOOOOOOOOOOOXX+++OOOOOOOOOOO  +++OOOOOOOOOOOOOOOOOOOOOOOOOOO..",
"OOOOOOOOOOOOOOXX+++OOOOOOOOOOO  +++OOOOOOOOOOOOOOOOOOOOOOOOOOO..",
"OOOOOOOOOOOoooXX+++OOOOOOOOoooXX+++OOOOOOOOOOOOOOOOOOOOOOOOOOOXX",
"OOOOOOOOOOOoooXX+++OOOOOOOOoooXX+++OOOOOOOOOOOOOOOOOOOOOOOOOOOXX",
"OOOOOOOOOOOoooXX+++OOOOOOOOoooXX+++OOOOOOOOOOOOOOOOOOOOOOOOOOOXX",
"OOOOOOOOOOOXXXooOOOOOOOOoooooo..ooo+++OOOOOOOOOOOOOOOOOOOOOOOOXX",
"OOOOOOOOOOOXXXooOOOOOOOOoooooo..ooo+++OOOOOOOOOOOOOOOOOOOOOOOOXX",
"oooOOOOOoooXXX..oooOOOOOoooXXX  XXX+++OOOOOOOOOOOOOOOOOOOOOooo  ",
"oooOOOOOoooXXX..oooOOOOOoooXXX  XXX+++OOOOOOOOOOOOOOOOOOOOOooo  ",
"oooOOOOOoooXXX..oooOOOOOoooXXX  XXX+++OOOOOOOOOOOOOOOOOOOOOooo  ",
"   ...XX..............  XXX   ..XXXooo++OOOOOOOOOOOOOOOOoooXXX..",
"   ...XX..............  XXX   ..XXXooo++OOOOOOOOOOOOOOOOoooXXX..",
"   ...XX..............  XXX   ..XXXooo++OOOOOOOOOOOOOOOOoooXXX..",
"...   ..XXX.....XXXXXX..   ...XXXXXXXXooOOOOOOOOOOOoooXX......XX",
"...   ..XXX.....XXXXXX..   ...XXXXXXXXooOOOOOOOOOOOoooXX......XX"
};
